<?xml version="1.0" encoding="UTF-8"?>
<svg xmlns="http://www.w3.org/2000/svg" width="971" height="292" viewBox="0 0 971 292" fill="none">
  <path d="M-0.00390625 176.834H39.053C75.9126 176.834 93.3249 167.597 93.3249 118.756C93.3249 70.8555 75.5992 60.8358 38.5816 60.8358H-0.00390625V176.834ZM31.0543 150.064V89.0141H40.6198C53.7968 89.0141 61.7952 89.7945 61.7952 118.914C61.7952 148.185 53.4831 150.064 41.8767 150.064H31.0543ZM98.0291 176.834H127.988V86.8213H98.0291V176.834ZM97.8706 80.5606H128.144V56.4535H97.8706V80.5606ZM159.826 78.9944H185.079L208.92 48H175.982L159.826 78.9944ZM163.593 177.928C177.08 177.928 183.04 175.113 187.589 169.944C191.039 176.363 196.688 177.302 208.293 177.302C211.117 177.302 214.256 177.147 217.549 176.834V151.003C212.215 151.003 211.901 149.909 211.901 145.213V114.687C211.901 92.2991 202.647 84.7874 177.238 84.7874C158.886 84.7874 146.965 87.9179 138.494 92.4576L150.415 116.409C155.591 114.061 163.121 111.715 173.788 111.715C180.53 111.715 182.571 113.433 182.885 118.914H180.217C146.965 118.914 134.102 125.02 134.102 149.597C134.102 166.189 139.121 177.928 163.593 177.928ZM170.806 153.666C163.593 153.666 162.494 150.69 162.494 146.151C162.494 139.89 165.63 136.602 180.375 136.602H182.885V142.865C182.885 151.316 179.118 153.666 170.806 153.666ZM225.86 176.834H255.975V131.437C255.975 120.948 257.7 114.374 277.465 114.374V86.038C262.721 86.038 256.605 89.327 252.211 94.4921L249.701 86.664L225.86 88.5439V176.834ZM285.308 176.834H315.265V86.8213H285.308V176.834ZM285.15 80.5606H315.423V56.4535H285.15V80.5606ZM366.398 178.243C399.652 178.243 408.436 161.649 408.436 131.594C408.436 102.788 399.652 85.0997 366.398 85.0997C333.459 85.0997 324.204 102.477 324.204 131.594C324.204 161.179 333.772 178.243 366.398 178.243ZM366.398 152.257C355.889 152.257 354.477 146.151 354.477 132.532C354.477 118.914 355.889 112.965 366.398 112.965C377.065 112.965 378.321 118.914 378.321 132.532C378.321 146.151 377.065 152.257 366.398 152.257ZM470.859 177.928C484.508 177.928 492.82 175.738 497.996 170.102L500.192 177.772L524.191 175.896V56.4539H494.232V90.7356C489.525 86.3511 483.565 85.0997 472.271 85.0997C445.135 85.0997 440.586 106.233 440.586 131.437C440.586 156.171 444.037 177.928 470.859 177.928ZM481.682 152.099C472.271 152.099 470.859 146.776 470.859 132.065C470.859 117.347 472.743 112.808 481.682 112.808C492.349 112.808 494.232 117.976 494.232 132.065C494.232 146.464 491.877 152.099 481.682 152.099ZM574.539 178.243C607.794 178.243 616.575 161.649 616.575 131.594C616.575 102.788 607.794 85.0997 574.539 85.0997C541.598 85.0997 532.346 102.477 532.346 131.594C532.346 161.179 541.914 178.243 574.539 178.243ZM574.539 152.257C564.031 152.257 562.619 146.151 562.619 132.532C562.619 118.914 564.031 112.965 574.539 112.965C585.206 112.965 586.46 118.914 586.46 132.532C586.46 146.151 585.206 152.257 574.539 152.257ZM653.745 176.834H684.334V142.553H701.588C732.802 142.553 742.997 123.609 742.997 100.285C742.997 76.6464 732.643 60.8358 702.216 60.8358H653.745V176.834ZM684.334 116.251V87.763H701.117C709.588 87.763 712.569 92.1441 712.569 102.165C712.569 111.87 709.588 116.251 701.117 116.251H684.334ZM775.304 177.928C788.794 177.928 794.754 175.113 799.302 169.944C802.752 176.363 808.4 177.302 820.01 177.302C822.83 177.302 825.967 177.147 829.262 176.834V151.003C823.928 151.003 823.615 149.909 823.615 145.213V114.687C823.615 92.2991 814.36 84.7874 788.952 84.7874C770.6 84.7874 758.679 87.9179 750.209 92.4576L762.129 116.409C767.305 114.061 774.835 111.715 785.499 111.715C792.244 111.715 794.283 113.433 794.596 118.914H791.931C758.679 118.914 745.815 125.02 745.815 149.597C745.815 166.189 750.835 177.928 775.304 177.928ZM782.52 153.666C775.304 153.666 774.205 150.69 774.205 146.151C774.205 139.89 777.341 136.602 792.089 136.602H794.596V142.865C794.596 151.316 790.833 153.666 782.52 153.666ZM835.222 176.834H865.337V131.437C865.337 120.948 867.063 114.374 886.826 114.374V86.038C872.082 86.038 865.965 89.327 861.573 94.4921L859.063 86.664L835.222 88.5439V176.834ZM912.545 78.9944H937.799L961.642 48H928.701L912.545 78.9944ZM916.309 177.928C929.8 177.928 935.76 175.113 940.309 169.944C943.759 176.363 949.406 177.302 961.012 177.302C963.836 177.302 966.973 177.147 970.268 176.834V151.003C964.935 151.003 964.621 149.909 964.621 145.213V114.687C964.621 92.2991 955.368 84.7874 929.955 84.7874C911.605 84.7874 899.682 87.9179 891.214 92.4576L903.135 116.409C908.31 114.061 915.84 111.715 926.505 111.715C933.25 111.715 935.291 113.433 935.605 118.914H932.936C899.682 118.914 886.822 125.02 886.822 149.597C886.822 166.189 891.841 177.928 916.309 177.928ZM923.526 153.666C916.309 153.666 915.214 150.69 915.214 146.151C915.214 139.89 918.351 136.602 933.094 136.602H935.605V142.865C935.605 151.316 931.841 153.666 923.526 153.666Z" fill="black"></path>
  <path fill-rule="evenodd" clip-rule="evenodd" d="M117.936 244H0.523438V216.576H100.316L117.936 244ZM185.744 244H970.321V216.576H168.124L185.744 244Z" fill="#ED1C24"></path>
  <path d="M168.121 216.576L185.74 244H117.932L100.312 216.576H168.121Z" fill="white"></path>
  <path d="M145.446 227.134L142.823 219.097L140.203 227.134L131.738 227.13L138.581 232.104L135.945 240.185L142.828 235.189L149.704 240.185L147.069 232.108L153.926 227.13L145.446 227.134Z" fill="#3F4096"></path>
</svg>
